<mxfile host="Electron" modified="2023-08-25T03:35:50.821Z" agent="Mozilla/5.0 (Macintosh; Intel Mac OS X 10_15_7) AppleWebKit/537.36 (KHTML, like Gecko) draw.io/21.2.8 Chrome/112.0.5615.165 Electron/24.2.0 Safari/537.36" etag="gBtDgszeCo5pOQOD8-n6" version="21.2.8" type="device">
  <diagram name="Page-1" id="OSzIyXDWX3rODirHsFkb">
    <mxGraphModel dx="555" dy="371" grid="1" gridSize="10" guides="1" tooltips="1" connect="1" arrows="1" fold="1" page="1" pageScale="1" pageWidth="850" pageHeight="1100" math="0" shadow="0">
      <root>
        <mxCell id="0" />
        <mxCell id="1" parent="0" />
        <mxCell id="ASIINkAv5hRpYzI1UjYJ-1" value="&lt;b&gt;Client&lt;/b&gt;" style="html=1;fontSize=12;startSize=25;arcSize=12;spacing=2;fillColor=none;" vertex="1" parent="1">
          <mxGeometry x="180" y="252" width="125" height="30" as="geometry" />
        </mxCell>
        <mxCell id="ASIINkAv5hRpYzI1UjYJ-2" value="&lt;b&gt;Context&lt;/b&gt;" style="html=1;fontSize=12;startSize=25;arcSize=12;spacing=2;fillColor=none;" vertex="1" parent="1">
          <mxGeometry x="440" y="170" width="125" height="30" as="geometry" />
        </mxCell>
        <mxCell id="ASIINkAv5hRpYzI1UjYJ-3" value="AbstractExpression" style="swimlane;fontStyle=3;childLayout=stackLayout;horizontal=1;startSize=30;fillColor=none;horizontalStack=0;resizeParent=1;resizeParentMax=0;resizeLast=0;collapsible=0;marginBottom=0;fontSize=12;swimlaneHead=1;swimlaneBody=1;connectable=1;allowArrows=1;dropTarget=1;align=left;spacingLeft=5;" vertex="1" parent="1">
          <mxGeometry x="440" y="260" width="150" height="60" as="geometry">
            <mxRectangle x="245" y="370" width="90" height="26" as="alternateBounds" />
          </mxGeometry>
        </mxCell>
        <mxCell id="ASIINkAv5hRpYzI1UjYJ-4" value="Interpret(Context)" style="text;strokeColor=none;fillColor=none;align=left;verticalAlign=middle;spacingLeft=5;spacingRight=4;overflow=hidden;rotatable=0;points=[[0,0.5],[1,0.5]];portConstraint=eastwest;fontSize=12;fontStyle=2;connectable=0;" vertex="1" parent="ASIINkAv5hRpYzI1UjYJ-3">
          <mxGeometry y="30" width="150" height="30" as="geometry" />
        </mxCell>
        <mxCell id="ASIINkAv5hRpYzI1UjYJ-7" value="TerminalExpression" style="swimlane;fontStyle=1;childLayout=stackLayout;horizontal=1;startSize=30;fillColor=none;horizontalStack=0;resizeParent=1;resizeParentMax=0;resizeLast=0;collapsible=0;marginBottom=0;fontSize=12;swimlaneHead=1;swimlaneBody=1;connectable=1;allowArrows=1;dropTarget=1;align=left;spacingLeft=5;" vertex="1" parent="1">
          <mxGeometry x="330" y="370" width="150" height="60" as="geometry">
            <mxRectangle x="245" y="370" width="90" height="26" as="alternateBounds" />
          </mxGeometry>
        </mxCell>
        <mxCell id="ASIINkAv5hRpYzI1UjYJ-8" value="Interpret(Context)" style="text;strokeColor=none;fillColor=none;align=left;verticalAlign=middle;spacingLeft=5;spacingRight=4;overflow=hidden;rotatable=0;points=[[0,0.5],[1,0.5]];portConstraint=eastwest;fontSize=12;fontStyle=0;connectable=0;" vertex="1" parent="ASIINkAv5hRpYzI1UjYJ-7">
          <mxGeometry y="30" width="150" height="30" as="geometry" />
        </mxCell>
        <mxCell id="ASIINkAv5hRpYzI1UjYJ-9" value="NonterminalExpression" style="swimlane;fontStyle=1;childLayout=stackLayout;horizontal=1;startSize=30;fillColor=none;horizontalStack=0;resizeParent=1;resizeParentMax=0;resizeLast=0;collapsible=0;marginBottom=0;fontSize=12;swimlaneHead=1;swimlaneBody=1;connectable=1;allowArrows=1;dropTarget=1;align=left;spacingLeft=5;" vertex="1" parent="1">
          <mxGeometry x="545" y="370" width="150" height="60" as="geometry">
            <mxRectangle x="245" y="370" width="90" height="26" as="alternateBounds" />
          </mxGeometry>
        </mxCell>
        <mxCell id="ASIINkAv5hRpYzI1UjYJ-10" value="Interpret(Context)" style="text;strokeColor=none;fillColor=none;align=left;verticalAlign=middle;spacingLeft=5;spacingRight=4;overflow=hidden;rotatable=0;points=[[0,0.5],[1,0.5]];portConstraint=eastwest;fontSize=12;fontStyle=0;connectable=0;" vertex="1" parent="ASIINkAv5hRpYzI1UjYJ-9">
          <mxGeometry y="30" width="150" height="30" as="geometry" />
        </mxCell>
        <mxCell id="ASIINkAv5hRpYzI1UjYJ-11" value="" style="endArrow=blockThin;html=1;rounded=0;endFill=1;entryX=0;entryY=0.5;entryDx=0;entryDy=0;exitX=1;exitY=0.25;exitDx=0;exitDy=0;edgeStyle=orthogonalEdgeStyle;" edge="1" parent="1" source="ASIINkAv5hRpYzI1UjYJ-1" target="ASIINkAv5hRpYzI1UjYJ-2">
          <mxGeometry width="50" height="50" relative="1" as="geometry">
            <mxPoint x="290" y="230" as="sourcePoint" />
            <mxPoint x="340" y="180" as="targetPoint" />
          </mxGeometry>
        </mxCell>
        <mxCell id="ASIINkAv5hRpYzI1UjYJ-12" value="" style="endArrow=blockThin;html=1;rounded=0;endFill=1;entryX=0;entryY=0.25;entryDx=0;entryDy=0;exitX=1;exitY=0.75;exitDx=0;exitDy=0;" edge="1" parent="1" source="ASIINkAv5hRpYzI1UjYJ-1" target="ASIINkAv5hRpYzI1UjYJ-3">
          <mxGeometry width="50" height="50" relative="1" as="geometry">
            <mxPoint x="315" y="278" as="sourcePoint" />
            <mxPoint x="450" y="195" as="targetPoint" />
          </mxGeometry>
        </mxCell>
        <mxCell id="ASIINkAv5hRpYzI1UjYJ-13" value="" style="edgeStyle=orthogonalEdgeStyle;rounded=0;orthogonalLoop=1;jettySize=auto;html=1;fontSize=12;startSize=30;endArrow=block;endFill=0;entryX=0.5;entryY=1;entryDx=0;entryDy=0;" edge="1" parent="1" source="ASIINkAv5hRpYzI1UjYJ-7" target="ASIINkAv5hRpYzI1UjYJ-3">
          <mxGeometry relative="1" as="geometry">
            <mxPoint x="510" y="384" as="sourcePoint" />
            <mxPoint x="510" y="350" as="targetPoint" />
          </mxGeometry>
        </mxCell>
        <mxCell id="ASIINkAv5hRpYzI1UjYJ-14" value="" style="edgeStyle=orthogonalEdgeStyle;rounded=0;orthogonalLoop=1;jettySize=auto;html=1;fontSize=12;startSize=30;endArrow=block;endFill=0;entryX=0.5;entryY=1;entryDx=0;entryDy=0;exitX=0.5;exitY=0;exitDx=0;exitDy=0;" edge="1" parent="1" source="ASIINkAv5hRpYzI1UjYJ-9" target="ASIINkAv5hRpYzI1UjYJ-3">
          <mxGeometry relative="1" as="geometry">
            <mxPoint x="415" y="380" as="sourcePoint" />
            <mxPoint x="520" y="320" as="targetPoint" />
          </mxGeometry>
        </mxCell>
        <mxCell id="ASIINkAv5hRpYzI1UjYJ-15" value="" style="rounded=0;orthogonalLoop=1;jettySize=auto;html=1;fontSize=12;startSize=8;endArrow=blockThin;endFill=1;startArrow=diamondThin;startFill=0;entryX=1;entryY=0.5;entryDx=0;entryDy=0;exitX=1;exitY=0.25;exitDx=0;exitDy=0;edgeStyle=orthogonalEdgeStyle;" edge="1" target="ASIINkAv5hRpYzI1UjYJ-16" parent="1" source="ASIINkAv5hRpYzI1UjYJ-9">
          <mxGeometry relative="1" as="geometry">
            <mxPoint x="670" y="285" as="sourcePoint" />
            <mxPoint x="730" y="284.14128885943535" as="targetPoint" />
          </mxGeometry>
        </mxCell>
        <mxCell id="ASIINkAv5hRpYzI1UjYJ-16" value="" style="ellipse;whiteSpace=wrap;html=1;aspect=fixed;fillColor=#000000;strokeColor=none;" vertex="1" parent="1">
          <mxGeometry x="590" y="270" width="10" height="10" as="geometry" />
        </mxCell>
      </root>
    </mxGraphModel>
  </diagram>
</mxfile>
